<?xml version="1.0" encoding="utf-8"?>
<!-- Generator: Adobe Illustrator 25.2.3, SVG Export Plug-In . SVG Version: 6.00 Build 0)  -->
<svg version="1.1" id="Layer_1" xmlns="http://www.w3.org/2000/svg" xmlns:xlink="http://www.w3.org/1999/xlink" x="0px" y="0px"
	 viewBox="0 0 4395 1920" style="enable-background:new 0 0 4395 1920;" xml:space="preserve">
<g>
	<path d="M1020.87,994.81c-35.54-9.06-63.42-19.51-63.42-38.33c0-17.42,17.42-28.57,40.42-28.57c25.79,0,44.61,11.85,55.76,35.54
		l76.69-41.82c-27.19-47.39-75.98-73.87-132.45-73.87c-37.65,0-69.01,9.75-94.8,29.97c-25.08,19.51-37.63,46.7-37.63,80.86
		c0,72.48,64.82,94.09,116.4,107.32c35.54,9.08,63.42,19.53,63.42,38.35c0,20.2-16.03,29.97-48.08,29.97
		c-35.56,0-57.86-15.34-68.32-45.3l-78.07,43.91c25.79,55.07,74.58,82.95,146.39,82.95c39.73,0,73.18-9.77,99.66-28.59
		c27.19-19.51,40.44-47.39,40.44-82.93C1137.97,1029.68,1071.76,1005.26,1020.87,994.81z"/>
	<path d="M1981.37,787.77v110.86c-26.5-34.16-64.13-50.88-112.93-50.88c-46.7,0-87.12,18.11-120.57,53.67
		c-32.76,35.54-49.5,78.76-49.5,130.34c0,51.58,16.74,95.49,49.5,131.03c33.45,35.56,73.87,52.98,120.57,52.98
		c48.81,0,86.43-16.74,112.93-50.88v50.88h89.92V787.77H1981.37z M1954.18,1102.86c-18.13,18.11-41.13,27.17-69.01,27.17
		c-27.88,0-50.88-9.06-69.7-27.17c-18.13-18.82-27.19-42.53-27.19-71.1c0-28.59,9.06-52.27,27.19-70.41
		c18.82-18.82,41.82-27.88,69.7-27.88c27.88,0,50.88,9.06,69.01,27.88c18.11,18.13,27.19,41.82,27.19,70.41
		C1981.37,1060.33,1972.3,1084.04,1954.18,1102.86z"/>
	<path d="M2402.66,895.85c-24.39-25.79-55.76-38.33-94.09-38.33c-47.41,0-82.26,16.03-103.86,48.79v-39.04h-89.92v348.51h89.92
		v-188.19c0-57.86,29.97-86.43,76.67-86.43c41.82,0,69.01,25.08,69.01,71.79v202.83h89.92V1001.8
		C2440.3,956.49,2427.76,921.64,2402.66,895.85z"/>
	<path d="M2830.16,1031.76c0-52.27-16.74-95.49-50.19-131.05c-32.76-35.54-75.29-52.96-126.16-52.96
		c-53.67,0-98.29,17.42-132.45,52.96c-34.14,34.85-51.57,78.77-51.57,131.05c0,52.96,17.42,96.89,52.27,131.74
		c34.85,34.85,80.84,52.27,138.71,52.27c66.9,0,117.8-25.1,151.96-74.58l-72.49-41.82c-17.42,23-43.93,34.85-78.07,34.85
		c-53.67,0-86.43-21.62-98.29-65.52h262.79C2828.77,1055.45,2830.16,1043.62,2830.16,1031.76z M2562.49,999
		c10.45-44.61,43.22-70.41,91.32-70.41c41.13,0,75.98,23,86.43,70.41H2562.49z"/>
	<path d="M2947.32,950.77v144.99c0,27.66,14.7,35.39,42.99,36.41h35.78v83.6h-46.22c-88.67,0.21-122.48-37.55-122.48-120.02V787.77
		h89.92v76.59h78.77v86.42H2947.32z"/>
	<path d="M3269.25,704.23v80.29h181.9l-139.92,345.51h88.82l144.16-354.63v-71.17H3269.25z"/>
	<path d="M1669.4,857.5v358.28h-89.92v-48.79c-21.62,32.76-56.47,48.79-103.86,48.79c-38.33,0-69.7-12.54-94.8-38.33
		c-24.39-25.79-36.94-60.64-36.94-105.95V951.26h-74.94v264.51h-92.77V787.77h92.77v76.28h164.85v196.29
		c0,46.7,27.17,71.8,69.01,71.8c46.7,0,76.67-28.59,76.67-86.43V857.5H1669.4z"/>
	<rect x="1212.5" y="1214.99" width="2.85" height="0.78"/>
	<rect x="1212.5" y="1214.99" width="2.85" height="0.78"/>
	<polygon points="3217.54,704.23 3217.54,1130.03 3133.61,1130.03 3133.61,793.03 3075.08,793.03 3075.08,704.23 	"/>
</g>
</svg>
